<svg version="1.1" id="Layer_1" xmlns="http://www.w3.org/2000/svg" xmlns:xlink="http://www.w3.org/1999/xlink" x="0px" y="0px"
	 width="100%" viewBox="0 0 59 63" enable-background="new 0 0 59 63" xml:space="preserve">
<path fill="#FFFDFD" opacity="1.000000" stroke="none" 
	d="
M26.000000,64.000000 
	C17.681946,64.000000 9.363890,64.000000 1.022917,64.000000 
	C1.022917,43.053799 1.022917,22.107569 1.022917,1.080669 
	C20.576567,1.080669 40.153522,1.080669 59.865246,1.080669 
	C59.865246,21.999462 59.865246,42.999592 59.865246,64.000000 
	C50.569721,64.000000 41.253521,64.000000 31.481779,63.531464 
	C31.043442,58.564167 30.968355,54.062485 31.110601,49.567688 
	C31.203903,46.619503 30.835777,43.310863 32.029682,40.810951 
	C35.093662,34.395287 38.913628,28.340666 42.537891,21.954031 
	C45.092514,23.413877 47.281567,24.990482 49.710377,25.976543 
	C53.366108,27.460724 54.404663,29.890932 54.144882,33.710590 
	C53.792595,38.890404 54.057209,44.112171 54.057209,49.315945 
	C54.522766,49.408520 54.988327,49.501095 55.453884,49.593666 
	C55.924850,48.422207 56.700348,47.276783 56.803207,46.073845 
	C57.015385,43.592407 56.504692,41.015770 56.934250,38.592239 
	C58.577454,29.321360 55.103554,23.713657 46.408871,19.648392 
	C36.277695,14.911484 26.885757,8.593519 17.216358,2.986753 
	C3.111974,23.959871 2.948053,24.463739 3.134293,45.724880 
	C3.135753,45.891502 3.158042,46.062050 3.131107,46.224201 
	C2.652058,49.108105 3.998806,50.713345 6.483293,52.139462 
	C13.083528,55.928051 19.506514,60.025436 26.000000,64.000000 
M39.281841,55.828964 
	C39.776802,56.485935 40.271763,57.142902 40.766731,57.799873 
	C42.473911,56.402016 45.363293,55.212955 45.654354,53.564987 
	C46.369450,49.516136 45.888268,45.256004 45.888268,40.879467 
	C40.672516,41.935299 38.580982,44.378666 39.227436,49.036236 
	C39.497463,50.981766 39.273357,52.995880 39.281841,55.828964 
z"/>
<path fill="#F54E5D" opacity="1.000000" stroke="none" 
	d="
M26.416666,64.000000 
	C19.506514,60.025436 13.083528,55.928051 6.483293,52.139462 
	C3.998806,50.713345 2.652058,49.108105 3.131107,46.224201 
	C3.158042,46.062050 3.135753,45.891502 3.134293,45.724880 
	C2.948053,24.463739 3.111974,23.959871 17.216358,2.986753 
	C26.885757,8.593519 36.277695,14.911484 46.408871,19.648392 
	C55.103554,23.713657 58.577454,29.321360 56.934250,38.592239 
	C56.504692,41.015770 57.015385,43.592407 56.803207,46.073845 
	C56.700348,47.276783 55.924850,48.422207 55.453884,49.593666 
	C54.988327,49.501095 54.522766,49.408520 54.057209,49.315945 
	C54.057209,44.112171 53.792595,38.890404 54.144882,33.710590 
	C54.404663,29.890932 53.366108,27.460724 49.710377,25.976543 
	C47.281567,24.990482 45.092514,23.413877 42.537891,21.954031 
	C38.913628,28.340666 35.093662,34.395287 32.029682,40.810951 
	C30.835777,43.310863 31.203903,46.619503 31.110601,49.567688 
	C30.968355,54.062485 31.043442,58.564167 31.013121,63.531464 
	C29.611111,64.000000 28.222221,64.000000 26.416666,64.000000 
z"/>
<path fill="#F6606C" opacity="1.000000" stroke="none" 
	d="
M39.277882,55.403885 
	C39.273357,52.995880 39.497463,50.981766 39.227436,49.036236 
	C38.580982,44.378666 40.672516,41.935299 45.888268,40.879467 
	C45.888268,45.256004 46.369450,49.516136 45.654354,53.564987 
	C45.363293,55.212955 42.473911,56.402016 40.766731,57.799873 
	C40.271763,57.142902 39.776802,56.485935 39.277882,55.403885 
z"/>
</svg>